<?xml version="1.0" encoding="UTF-8" standalone="no"?><!DOCTYPE svg PUBLIC "-//W3C//DTD SVG 1.1//EN" "http://www.w3.org/Graphics/SVG/1.1/DTD/svg11.dtd"><svg width="100%" height="100%" viewBox="0 0 250 250" version="1.1" xmlns="http://www.w3.org/2000/svg" xmlns:xlink="http://www.w3.org/1999/xlink" xml:space="preserve" xmlns:serif="http://www.serif.com/" style="fill-rule:evenodd;clip-rule:evenodd;stroke-linejoin:round;stroke-miterlimit:2;"><rect id="Logo" x="0" y="-0" width="250" height="250" style="fill:none;"/><path id="Logo-Joined" serif:id="Logo Joined" d="M112.163,107.684l0,34.275c0,38.532 -21.796,54.684 -54.1,54.684c-20.239,0 -46.511,-7.006 -49.04,-31.137c-1.751,-16.152 10.703,-26.661 23.936,-26.077c13.428,0.584 19.071,10.703 19.071,18.098c-7.979,0.778 -13.039,6.422 -12.649,15.763c0.389,9.73 7.979,16.152 17.514,16.152c18.877,0 22.185,-22.38 22.185,-52.932l0,-65.387c0,-14.985 -7.2,-22.38 -21.99,-22.38l0,-5.449l73.366,0l0,5.449c-14.532,0 -18.167,9.769 -18.29,21.739l120.926,0l8.051,42.257c0,0 -7.078,-0.223 -11.165,-0.223c-2.05,-19.493 -1.98,-34.361 -16.369,-33.959c-4.188,0.117 -8.997,-0.254 -15.935,-0.291l-10.119,0l0,100.805c0,12.26 3.308,22.38 18.098,22.38l0,5.254l-69.474,0l0,-5.254c14.79,0 18.293,-10.119 18.293,-22.38l0,-100.805l-10.119,0c-5.425,-0.319 -10.138,0.248 -14.161,0.273c-11.792,0.073 -17.19,10.09 -18.028,29.144Z"/><path d="M116.095,107.771l0,34.187c0,20.624 -6.029,35.187 -16.185,44.666c-10.149,9.473 -24.567,13.95 -41.847,13.95c-10.7,0 -22.984,-1.902 -32.938,-6.943c-10.577,-5.357 -18.591,-14.157 -20.013,-27.713c-2.039,-18.868 12.559,-31.099 28.019,-30.417c16.202,0.705 22.831,13.103 22.831,22.026c0,2.024 -1.536,3.717 -3.55,3.913c-2.857,0.279 -5.23,1.348 -6.815,3.263c-1.674,2.024 -2.435,4.891 -2.288,8.423l0,0.007c0.3,7.506 6.23,12.377 13.586,12.377c7.608,0 11.878,-4.749 14.447,-12.338c3.08,-9.099 3.806,-21.897 3.806,-36.663l0,-65.387c0,-6.236 -1.288,-10.959 -4.325,-14.056c-3.014,-3.075 -7.625,-4.391 -13.734,-4.391c-2.172,0 -3.932,-1.76 -3.932,-3.932l0,-5.449c-0,-2.172 1.76,-3.932 3.932,-3.932l73.366,0c2.172,-0 3.932,1.76 3.932,3.932l0,5.449c0,2.172 -1.76,3.932 -3.932,3.932c-4.552,0 -7.79,1.063 -9.981,3.132c-2.706,2.555 -3.807,6.374 -4.196,10.744l116.813,0c1.888,-0 3.509,1.342 3.862,3.196l8.051,42.257c0.223,1.172 -0.098,2.382 -0.873,3.29c-0.775,0.907 -1.92,1.414 -3.113,1.376c0,0 -7,-0.221 -11.041,-0.221c-2.012,0 -3.7,-1.519 -3.91,-3.521c-0.99,-9.411 -1.409,-17.713 -3.377,-23.606c-0.75,-2.247 -1.693,-4.092 -3.201,-5.3c-1.41,-1.13 -3.296,-1.602 -5.772,-1.533c-4.22,0.118 -9.067,-0.252 -16.057,-0.29l-6.176,-0l0,96.873c0,6.178 0.685,11.798 4.168,15.234c2.154,2.125 5.389,3.214 9.999,3.214c2.172,0 3.932,1.76 3.932,3.932l0,5.254c-0,2.172 -1.76,3.932 -3.932,3.932l-69.474,0c-2.172,-0 -3.932,-1.76 -3.932,-3.932l0,-5.254c0,-2.172 1.76,-3.932 3.932,-3.932c4.626,0 7.895,-1.1 10.086,-3.232c3.526,-3.432 4.275,-9.045 4.275,-15.215l0,-96.873l-6.188,0c-0.077,0 -0.154,-0.002 -0.231,-0.007c-5.327,-0.313 -9.956,0.255 -13.906,0.28c-5.379,0.033 -8.922,2.905 -11.102,8.233c-1.767,4.319 -2.704,10.032 -3.019,17.067Zm-3.932,-0.088c0.838,-19.053 6.236,-29.071 18.028,-29.144c4.023,-0.025 8.736,-0.592 14.161,-0.273l10.119,0l0,100.805c0,12.26 -3.503,22.38 -18.293,22.38l0,5.254l69.474,0l0,-5.254c-14.79,0 -18.098,-10.119 -18.098,-22.38l0,-100.805l10.119,0c6.938,0.037 11.747,0.408 15.935,0.291c14.39,-0.402 14.319,14.466 16.369,33.959c4.087,0 11.165,0.223 11.165,0.223l-8.051,-42.257l-120.926,0c0.123,-11.97 3.758,-21.739 18.29,-21.739l0,-5.449l-73.366,0l0,5.449c14.79,0 21.99,7.395 21.99,22.38l0,65.387c0,30.553 -3.308,52.932 -22.185,52.932c-9.536,0 -17.125,-6.422 -17.514,-16.152c-0.389,-9.341 4.671,-14.985 12.649,-15.763c0,-7.395 -5.644,-17.514 -19.071,-18.098c-13.233,-0.584 -25.688,9.925 -23.936,26.077c2.53,24.131 28.801,31.137 49.04,31.137c32.304,0 54.1,-16.152 54.1,-54.684l0,-34.275Z" style="fill:#fff;"/></svg>