<?xml version="1.0" encoding="UTF-8" standalone="no"?>
<!DOCTYPE svg PUBLIC "-//W3C//DTD SVG 1.1//EN" "http://www.w3.org/Graphics/SVG/1.1/DTD/svg11.dtd">
<svg width="100%" height="100%" viewBox="0 0 250 250" version="1.1" xmlns="http://www.w3.org/2000/svg" xmlns:xlink="http://www.w3.org/1999/xlink" xml:space="preserve" xmlns:serif="http://www.serif.com/" style="fill-rule:evenodd;clip-rule:evenodd;stroke-linejoin:round;stroke-miterlimit:2;">
    <g transform="matrix(1,0,0,1,-0.320109,-0.404195)">
        <g id="Background" transform="matrix(1.118178,0,0,1.118178,-10.16765,-27.084048)">
            <path d="M232.064,80.254L232.064,191.596C232.064,222.322 207.118,247.268 176.393,247.268L65.05,247.268C34.325,247.268 9.379,222.322 9.379,191.596L9.379,80.254C9.379,49.528 34.325,24.583 65.05,24.583L176.393,24.583C207.118,24.583 232.064,49.528 232.064,80.254Z" style="fill:rgb(255,253,253);"/>
        </g>
        <path id="Logo-Joined" serif:id="Logo Joined" d="M112.163,107.684L112.163,141.959C112.163,180.491 90.367,196.643 58.063,196.643C37.824,196.643 11.552,189.637 9.023,165.506C7.272,149.354 19.726,138.845 32.959,139.429C46.387,140.013 52.03,150.132 52.03,157.527C44.051,158.305 38.991,163.949 39.381,173.29C39.77,183.02 47.36,189.442 56.895,189.442C75.772,189.442 79.08,167.062 79.08,136.51L79.08,71.123C79.08,56.138 71.88,45.743 57.09,45.743L57.09,40.294L130.456,40.294L130.456,45.743C115.924,45.743 112.289,58.512 112.166,70.482L233.092,70.482L241.143,112.739C241.143,112.739 234.065,112.516 229.978,112.516C227.928,93.023 227.998,85.155 213.609,85.557C209.421,85.674 204.612,85.303 197.674,85.266L187.555,85.266L187.555,179.071C187.555,191.331 190.863,201.451 205.653,201.451L205.653,206.705L136.179,206.705L136.179,201.451C150.969,201.451 154.472,191.332 154.472,179.071L154.472,85.266L144.353,85.266C138.928,84.947 134.215,85.514 130.192,85.539C118.4,85.612 113.002,88.629 112.164,107.683L112.163,107.684Z"/>
    </g>
</svg>
