<?xml version="1.0" encoding="UTF-8" standalone="no"?>
<!DOCTYPE svg PUBLIC "-//W3C//DTD SVG 1.1//EN" "http://www.w3.org/Graphics/SVG/1.1/DTD/svg11.dtd">
<svg width="100%" height="100%" viewBox="0 0 233 167" version="1.1" xmlns="http://www.w3.org/2000/svg" xmlns:xlink="http://www.w3.org/1999/xlink" xml:space="preserve" xmlns:serif="http://www.serif.com/" style="fill-rule:evenodd;clip-rule:evenodd;stroke-linejoin:round;stroke-miterlimit:2;">
    <g transform="matrix(1,0,0,1,-8.857831,-40.294)">
        <path id="Logo-Joined" serif:id="Logo Joined" d="M112.163,107.684L112.163,141.959C112.163,180.491 90.367,196.643 58.063,196.643C37.824,196.643 11.552,189.637 9.023,165.506C7.272,149.354 19.726,138.845 32.959,139.429C46.387,140.013 52.03,150.132 52.03,157.527C44.051,158.305 38.991,163.949 39.381,173.29C39.77,183.02 47.36,189.442 56.895,189.442C75.772,189.442 79.08,167.062 79.08,136.51L79.08,71.123C79.08,56.138 71.88,45.743 57.09,45.743L57.09,40.294L130.456,40.294L130.456,45.743C115.924,45.743 112.289,58.512 112.166,70.482L233.092,70.482L241.143,112.739C241.143,112.739 234.065,112.516 229.978,112.516C227.928,93.023 227.998,85.155 213.609,85.557C209.421,85.674 204.612,85.303 197.674,85.266L187.555,85.266L187.555,179.071C187.555,191.331 190.863,201.451 205.653,201.451L205.653,206.705L136.179,206.705L136.179,201.451C150.969,201.451 154.472,191.332 154.472,179.071L154.472,85.266L144.353,85.266C138.928,84.947 134.215,85.514 130.192,85.539C118.4,85.612 113.002,88.629 112.164,107.683L112.163,107.684Z"/>
    </g>
</svg>
