<?xml version="1.0" encoding="UTF-8" standalone="no"?>
<!DOCTYPE svg PUBLIC "-//W3C//DTD SVG 1.1//EN" "http://www.w3.org/Graphics/SVG/1.1/DTD/svg11.dtd">
<svg width="100%" height="100%" viewBox="0 0 297 87" version="1.1" xmlns="http://www.w3.org/2000/svg" xmlns:xlink="http://www.w3.org/1999/xlink" xml:space="preserve" xmlns:serif="http://www.serif.com/" style="fill-rule:evenodd;clip-rule:evenodd;stroke-linejoin:round;stroke-miterlimit:2;">
    <g id="Pottery-Barn-Logo" serif:id="Pottery Barn Logo" transform="matrix(0.555474,0,0,1.076198,14.812633,23.676361)">
        <rect x="-26.667" y="-22" width="533.333" height="80" style="fill:none;"/>
        <g transform="matrix(1.800265,0,0,0.929197,-18.888885,-20.402553)">
            <g id="path3" transform="matrix(1.42391,0,0,1.42391,0.333333,1.411451)">
                <path d="M5,12L5,22.7L6,22.7L6,23.2L0,23.2L0,22.7L1,22.7L1,0.5L0,0.5L0,0L7.1,0C7.6,0 9.4,-0.1 10.4,0.5C11.5,1.2 11.8,2.2 11.8,3.3L11.8,8.8C11.8,9.4 11.7,10.4 10.6,11.2C9.6,11.9 7.8,12 6.4,12L5,12ZM7.8,2.1C7.8,1.7 7.8,1.3 7.6,1C7.2,0.6 6.8,0.5 6.2,0.5L5,0.5L5,11.6L6.5,11.6C7,11.6 7.3,11.4 7.6,11.2C7.9,10.9 7.8,10.3 7.8,10L7.8,2.1Z" style="fill-rule:nonzero;"/>
            </g>
            <g id="path5" transform="matrix(1.42391,0,0,1.42391,0.333333,1.411451)">
                <path d="M42.1,19.8C42.1,21.9 40.7,23.3 37,23.2C33,23.2 32,21.9 32,19.8L32,5.7C32,3.2 33.8,1.9 37.2,1.9C40.5,1.9 42.2,3.5 42.2,5.7L42.2,19.8L42.1,19.8ZM38.5,3.9C38.5,2.7 38.1,2.3 37.2,2.3C36.2,2.3 35.7,2.7 35.7,3.9L35.7,21.2C35.7,22.1 36,22.8 37.1,22.8C38.2,22.8 38.6,22.4 38.6,21.2L38.6,3.9L38.5,3.9Z" style="fill-rule:nonzero;"/>
            </g>
            <g id="path7" transform="matrix(1.42391,0,0,1.42391,0.333333,1.411451)">
                <path d="M74.4,2.3L74.4,6.5L73.9,6.5L73.9,3.3L70.8,3.3L70.8,22.8L71.7,22.8L71.7,23.3L66.3,23.3L66.3,22.8L67.2,22.8L67.2,3.3L64.1,3.3L64.1,6.6L63.6,6.6L63.6,2.3L74.4,2.3Z" style="fill-rule:nonzero;"/>
            </g>
            <g id="path9" transform="matrix(1.42391,0,0,1.42391,0.333333,1.411451)">
                <path d="M106.7,2.3L106.7,6.5L106.2,6.5L106.2,3.3L103.1,3.3L103.1,22.8L104,22.8L104,23.3L98.6,23.3L98.6,22.8L99.5,22.8L99.5,3.3L96.4,3.3L96.4,6.6L95.9,6.6L95.9,2.3L106.7,2.3Z" style="fill-rule:nonzero;"/>
            </g>
            <g id="path11" transform="matrix(1.42391,0,0,1.42391,0.333333,1.411451)">
                <path d="M132.5,12.1L136.5,12.1L136.5,10.3L137,10.3L137,14.9L136.5,14.9L136.5,13.1L132.5,13.1L132.5,22.4L136.5,22.4L136.5,19.2L137,19.2L137,23.3L128,23.3L128,22.8L128.9,22.8L128.9,2.8L128,2.8L128,2.3L137.1,2.3L137.1,6.4L136.6,6.4L136.6,3.3L132.6,3.3L132.6,12.1L132.5,12.1Z" style="fill-rule:nonzero;"/>
            </g>
            <g id="path13" transform="matrix(1.42391,0,0,1.42391,0.333333,1.411451)">
                <path d="M166.5,12.5C166.5,12.6 167.8,12.7 168.8,13.4C169.7,14 169.8,14.7 169.8,15.6L169.8,22.7L170.7,22.7L170.7,23.2L166.2,23.2L166.2,14.8C166.2,14.1 166.4,13.5 165.7,13.1C165.3,12.8 164.6,12.9 164.1,12.9L162.9,12.9L162.9,22.7L163.8,22.7L163.8,23.2L158.4,23.2L158.4,22.7L159.3,22.7L159.3,2.7L158.4,2.7L158.4,2.3L164.8,2.3C165.2,2.3 166.9,2.2 167.8,2.8C168.8,3.4 169.1,4.3 169.1,5.4L169.1,9.9C169.1,10.1 169.2,11.1 168.4,11.8C167.5,12.4 166.5,12.5 166.5,12.5ZM165.4,4.2C165.4,3.8 165.5,3.5 165.2,3.2C164.9,2.9 164.4,2.8 164.1,2.8L163,2.8L163,12.6L164.3,12.6C164.7,12.6 165,12.5 165.3,12.2C165.6,11.9 165.5,11.4 165.5,11.1L165.5,4.2L165.4,4.2Z" style="fill-rule:nonzero;"/>
            </g>
            <g id="path15" transform="matrix(1.42391,0,0,1.42391,0.333333,1.411451)">
                <path d="M194,15.8L190.2,2.8L189.3,2.8L189.3,2.3L194.7,2.3L194.7,2.8L193.8,2.8L197,13.8L199.8,2.8L199,2.8L199,2.3L202,2.3L202,2.8L201.1,2.8L197.7,15.8L197.7,22.8L198.6,22.8L198.6,23.3L193.2,23.3L193.2,22.8L194.1,22.8L194.1,15.8L194,15.8Z" style="fill-rule:nonzero;"/>
            </g>
        </g>
        <g transform="matrix(1.800265,0,0,0.929197,-477.740213,23.096869)">
            <g id="path17" transform="matrix(1.42391,0,0,1.42391,0.333333,1.411451)">
                <path d="M235.9,14.6L235.9,19.8C235.9,20.7 235.9,21.3 235.2,22.1C234.3,23.1 232.5,23.2 231.7,23.2L223,23.2L223,22.7L224,22.7L224,0.5L223,0.5L223,0L231.4,0C232.4,0 233.2,0.2 234,0.8C235.3,1.8 235.2,3 235.2,3L235.2,8.6C235.2,8.6 235.2,9.7 234.4,10.4C233.3,11.3 232.5,11.3 232.5,11.4C232.5,11.6 234,11.5 235.1,12.5C235.6,13 235.9,13.6 235.9,14.6ZM228,22.7L230.2,22.7C230.3,22.7 231,22.7 231.4,22.4C231.8,22.1 231.9,21.7 231.9,21.3L231.9,13.1C231.9,12.8 231.9,12.5 231.7,12.2C231.5,11.9 231,11.8 230.6,11.8L228,11.8L228,22.7ZM228,0.5L228,11.2L230.1,11.2C230.2,11.2 230.6,11.2 230.9,10.9C231.1,10.6 231.1,10.3 231.1,10L231.1,1.9C231.1,1.8 231.2,1 230.9,0.8C230.7,0.5 229.8,0.5 229.7,0.5L228,0.5Z" style="fill-rule:nonzero;"/>
            </g>
            <g id="path19" transform="matrix(1.42391,0,0,1.42391,0.333333,1.411451)">
                <path d="M262.9,2.8L262,2.8L262,2.3L267.6,2.3L267.6,2.8L266.6,2.8L270.2,22.8L271.1,22.8L271.1,23.3L265.6,23.3L265.6,22.8L266.4,22.8L265.5,17L261,17L259.8,22.8L260.7,22.8L260.7,23.3L257.9,23.3L257.9,22.8L258.7,22.8L262.9,2.8ZM261.2,16.1L265.3,16.1L263.4,4.7L261.2,16.1Z" style="fill-rule:nonzero;"/>
            </g>
            <g id="path21" transform="matrix(1.42391,0,0,1.42391,0.333333,1.411451)">
                <path d="M300.5,12.5C300.5,12.6 301.8,12.7 302.8,13.4C303.7,14 303.8,14.7 303.8,15.6L303.8,22.7L304.7,22.7L304.7,23.2L300.2,23.2L300.2,14.8C300.2,14.1 300.4,13.5 299.7,13.1C299.3,12.8 298.6,12.9 298.1,12.9L296.9,12.9L296.9,22.7L297.8,22.7L297.8,23.2L292.4,23.2L292.4,22.7L293.3,22.7L293.3,2.7L292.4,2.7L292.4,2.3L298.8,2.3C299.2,2.3 300.9,2.2 301.8,2.8C302.8,3.4 303.1,4.3 303.1,5.4L303.1,9.9C303.1,10.1 303.2,11.1 302.4,11.8C301.5,12.4 300.5,12.5 300.5,12.5ZM299.3,4.2C299.3,3.8 299.4,3.5 299.1,3.2C298.8,2.9 298.3,2.8 298,2.8L296.9,2.8L296.9,12.6L298.2,12.6C298.6,12.6 298.9,12.5 299.2,12.2C299.5,11.9 299.4,11.4 299.4,11.1L299.4,4.2L299.3,4.2Z" style="fill-rule:nonzero;"/>
            </g>
            <g id="path23" transform="matrix(1.42391,0,0,1.42391,0.333333,1.411451)">
                <path d="M332.4,23.3L328,5.9L328,22.8L328.9,22.8L328.9,23.3L326,23.3L326,22.8L326.9,22.8L326.9,2.8L326,2.8L326,2.3L330.5,2.3L335.1,20.4L335.1,2.8L334.2,2.8L334.2,2.3L337,2.3L337,2.8L336.1,2.8L336.1,23.3L332.4,23.3Z" style="fill-rule:nonzero;"/>
            </g>
        </g>
    </g>
</svg>
